<svg width="40" height="40" viewBox="0 0 40 40" fill="none" xmlns="http://www.w3.org/2000/svg">
<g clip-path="url(#clip0_2_3)">
<path d="M1.6665 1.66666H8.33317L12.7998 23.9833C12.9522 24.7506 13.3697 25.4399 13.9791 25.9305C14.5885 26.4211 15.351 26.6816 16.1332 26.6667H32.3332C33.1153 26.6816 33.8779 26.4211 34.4873 25.9305C35.0967 25.4399 35.5141 24.7506 35.6665 23.9833L38.3332 9.99999H9.99984M16.6665 35C16.6665 35.9205 15.9203 36.6667 14.9998 36.6667C14.0794 36.6667 13.3332 35.9205 13.3332 35C13.3332 34.0795 14.0794 33.3333 14.9998 33.3333C15.9203 33.3333 16.6665 34.0795 16.6665 35ZM34.9998 35C34.9998 35.9205 34.2536 36.6667 33.3332 36.6667C32.4127 36.6667 31.6665 35.9205 31.6665 35C31.6665 34.0795 32.4127 33.3333 33.3332 33.3333C34.2536 33.3333 34.9998 34.0795 34.9998 35Z" stroke="#EC221F" stroke-width="3.5" stroke-linecap="round" stroke-linejoin="round"/>
</g>
<defs>
<clipPath id="clip0_2_3">
<rect width="40" height="40" fill="white"/>
</clipPath>
</defs>
</svg>
