<svg width="273" height="70" viewBox="0 0 273 70" fill="none" xmlns="http://www.w3.org/2000/svg">
<path d="M2.14233 23.7058H22.7563V27.4827H9.02954V36.3218H20.4712V40.0828H9.02954V50.2231H22.9468V54H2.14233V23.7058ZM27.3267 40.8762V36.5757H47.0837V40.8762H27.3267ZM74.3628 52.3179C74.3628 52.5295 73.5799 52.8944 72.0142 53.4128C70.459 53.9207 68.5547 54.201 66.3013 54.2539C61.0539 54.2539 57.3881 52.9262 55.304 50.2708C53.2304 47.6047 52.1936 43.4523 52.1936 37.8135C52.2994 34.7772 52.7649 32.2222 53.5901 30.1487C54.4259 28.0751 55.7906 26.4618 57.6843 25.3086C59.578 24.1554 62.1277 23.5577 65.3333 23.5154C67.2481 23.5154 68.9673 23.6635 70.4907 23.9597C72.0247 24.2454 73.1197 24.4887 73.7756 24.6897L75.0769 29.8154C74.5162 29.424 73.5111 28.9373 72.0618 28.3555C70.6124 27.7736 68.8668 27.4827 66.825 27.4827C64.0108 27.4827 62.1224 28.4666 61.1597 30.4343C60.2075 32.4021 59.7314 34.8618 59.7314 37.8135C59.7314 40.0881 59.8584 42.0929 60.1123 43.8279C60.3768 45.5629 60.9481 47.0493 61.8262 48.2871C62.7148 49.5249 64.0108 50.1967 65.7141 50.3025C67.7136 50.3025 69.3799 50.1174 70.7129 49.7471C72.0459 49.3662 73.0721 48.9377 73.7915 48.4617C74.4474 48.0385 74.7754 47.8057 74.7754 47.7634C74.7754 47.7634 74.7701 47.7634 74.7595 47.7634L74.3628 52.3179ZM86.5344 32.2275C89.0523 32.2275 91.0624 32.6348 92.5647 33.4495C94.0776 34.2641 95.1619 35.4701 95.8179 37.0676C96.4738 38.6651 96.8018 40.6911 96.8018 43.1455C96.8018 46.9858 95.9871 49.8 94.3579 51.5879C92.7287 53.3652 90.0732 54.2539 86.3916 54.2539C82.9004 54.2222 80.3243 53.3282 78.6633 51.572C77.0129 49.8158 76.1877 47.0282 76.1877 43.209C76.2512 35.888 79.7001 32.2275 86.5344 32.2275ZM82.2339 43.1455C82.3079 45.0181 82.4137 46.441 82.5513 47.4143C82.6994 48.377 83.0855 49.2498 83.7097 50.0327C84.3339 50.8156 85.2966 51.207 86.5979 51.207C88.4176 51.207 89.5654 50.5194 90.0415 49.144C90.5176 47.7581 90.7556 45.8009 90.7556 43.2725C90.7556 40.7863 90.5123 38.8238 90.0256 37.385C89.5496 35.9356 88.407 35.2109 86.5979 35.2109C84.7359 35.2638 83.5404 35.9885 83.0115 37.385C82.4931 38.7709 82.2339 40.6911 82.2339 43.1455ZM98.8647 54V32.3545H104.974V34.116C106.233 32.857 108.164 32.2275 110.767 32.2275C112.607 32.2275 113.898 32.5608 114.639 33.2273C115.39 33.8938 115.829 34.4492 115.956 34.8936C115.966 34.8724 116.178 34.6344 116.591 34.1794C117.014 33.7245 117.633 33.3119 118.447 32.9417C119.262 32.5608 120.299 32.3439 121.558 32.291C123.875 32.291 125.61 32.82 126.763 33.8779C127.926 34.9359 128.508 36.3112 128.508 38.0039V54H123.827V38.5276C123.827 36.581 122.658 35.6077 120.32 35.6077C119.093 35.6923 118.215 36.1366 117.686 36.9407C117.167 37.7447 116.855 38.4059 116.749 38.9243V54H112.068V38.5276C112.068 37.6918 111.782 36.9989 111.211 36.4487C110.64 35.888 109.751 35.6077 108.545 35.6077C107.254 35.7346 106.355 36.2213 105.847 37.0676C105.339 37.9034 105.048 38.5858 104.974 39.1147V54H98.8647ZM131.428 54V32.3545H137.538V34.116C138.797 32.857 140.728 32.2275 143.33 32.2275C145.171 32.2275 146.462 32.5608 147.202 33.2273C147.953 33.8938 148.392 34.4492 148.519 34.8936C148.53 34.8724 148.741 34.6344 149.154 34.1794C149.577 33.7245 150.196 33.3119 151.011 32.9417C151.825 32.5608 152.862 32.3439 154.121 32.291C156.438 32.291 158.173 32.82 159.326 33.8779C160.49 34.9359 161.072 36.3112 161.072 38.0039V54H156.39V38.5276C156.39 36.581 155.221 35.6077 152.883 35.6077C151.656 35.6923 150.778 36.1366 150.249 36.9407C149.731 37.7447 149.419 38.4059 149.313 38.9243V54H144.631V38.5276C144.631 37.6918 144.346 36.9989 143.774 36.4487C143.203 35.888 142.314 35.6077 141.108 35.6077C139.818 35.7346 138.918 36.2213 138.411 37.0676C137.903 37.9034 137.612 38.5858 137.538 39.1147V54H131.428ZM169.387 44.2563C169.482 45.3989 169.874 46.843 170.562 48.5886C171.249 50.3342 172.503 51.2493 174.323 51.334C176.544 51.334 178.285 51.0536 179.543 50.4929C180.802 49.9216 181.622 49.4456 182.003 49.0647L181.083 52.8257C181.083 53.0479 180.453 53.3441 179.194 53.7144C177.935 54.0741 176.333 54.2539 174.386 54.2539C173.614 54.2539 173.011 54.2327 172.577 54.1904C169.424 53.9577 167.113 53.0531 165.642 51.4768C164.182 49.8899 163.436 47.3508 163.405 43.8596C163.405 39.8606 164.235 36.9301 165.896 35.0681C167.568 33.2061 170.011 32.2593 173.228 32.2275C177.089 32.2275 179.707 33.2432 181.083 35.2744C182.257 36.9565 182.844 39.2311 182.844 42.0981C182.844 42.6377 182.828 43.0979 182.797 43.4788C182.765 43.849 182.738 44.1082 182.717 44.2563H169.387ZM173.815 34.957C170.863 35.0522 169.387 37.1946 169.387 41.384H178.813C178.813 37.0994 177.147 34.957 173.815 34.957ZM184.685 54V32.3545H190.795V35.0205C190.816 34.9993 190.938 34.8512 191.16 34.5762C191.392 34.2905 191.736 33.9943 192.191 33.6875C192.646 33.3807 193.265 33.0898 194.048 32.8147C194.884 32.4656 195.947 32.291 197.238 32.291C198.232 32.291 198.856 32.3333 199.11 32.418L199.634 35.5442C198.893 35.3643 198.2 35.2744 197.555 35.2744C196.148 35.2744 194.979 35.5389 194.048 36.0679C193 36.5863 192.196 37.2951 191.636 38.1943C191.075 39.0936 190.795 39.9188 190.795 40.6699V54H184.685ZM218.09 53.0955C218.09 53.1801 217.476 53.3494 216.249 53.6033C215.032 53.8572 213.477 54.0106 211.583 54.0635C208.938 54.0635 206.844 53.6932 205.299 52.9526C203.754 52.2121 202.638 51.006 201.951 49.3345C201.274 47.6523 200.935 45.3513 200.935 42.4314C201.02 40.1039 201.39 38.1996 202.046 36.7185C202.712 35.2374 203.765 34.1318 205.204 33.4019C206.653 32.6613 208.584 32.291 210.996 32.291C212.53 32.3228 213.905 32.455 215.122 32.6877C216.349 32.9205 217.227 33.1109 217.756 33.259L218.407 36.3853C218.016 36.1842 217.296 35.9356 216.249 35.6394C215.201 35.3432 213.884 35.1792 212.297 35.1475C210.213 35.1475 208.827 35.8351 208.14 37.2104C207.452 38.5858 207.108 40.3261 207.108 42.4314C207.108 44.9705 207.389 47.0387 207.949 48.6362C208.521 50.2231 209.69 51.0801 211.456 51.207C212.863 51.207 214.075 51.0854 215.09 50.842C216.106 50.5987 216.921 50.3342 217.534 50.0486C218.158 49.7524 218.47 49.5725 218.47 49.509L218.09 53.0955ZM225.818 44.2563C225.913 45.3989 226.305 46.843 226.992 48.5886C227.68 50.3342 228.934 51.2493 230.753 51.334C232.975 51.334 234.715 51.0536 235.974 50.4929C237.233 49.9216 238.053 49.4456 238.434 49.0647L237.513 52.8257C237.513 53.0479 236.884 53.3441 235.625 53.7144C234.366 54.0741 232.763 54.2539 230.817 54.2539C230.044 54.2539 229.441 54.2327 229.008 54.1904C225.855 53.9577 223.543 53.0531 222.073 51.4768C220.613 49.8899 219.867 47.3508 219.835 43.8596C219.835 39.8606 220.666 36.9301 222.327 35.0681C223.998 33.2061 226.442 32.2593 229.658 32.2275C233.52 32.2275 236.138 33.2432 237.513 35.2744C238.688 36.9565 239.275 39.2311 239.275 42.0981C239.275 42.6377 239.259 43.0979 239.227 43.4788C239.196 43.849 239.169 44.1082 239.148 44.2563H225.818ZM230.245 34.957C227.294 35.0522 225.818 37.1946 225.818 41.384H235.244C235.244 37.0994 233.578 34.957 230.245 34.957Z" fill="black"/>
<g clip-path="url(#clip0_1_588)">
<path d="M234.667 1.66669H241.333L245.8 23.9834C245.952 24.7507 246.37 25.44 246.979 25.9305C247.588 26.4211 248.351 26.6817 249.133 26.6667H265.333C266.115 26.6817 266.878 26.4211 267.487 25.9305C268.097 25.44 268.514 24.7507 268.667 23.9834L271.333 10H243M249.667 35C249.667 35.9205 248.92 36.6667 248 36.6667C247.079 36.6667 246.333 35.9205 246.333 35C246.333 34.0795 247.079 33.3334 248 33.3334C248.92 33.3334 249.667 34.0795 249.667 35ZM268 35C268 35.9205 267.254 36.6667 266.333 36.6667C265.413 36.6667 264.667 35.9205 264.667 35C264.667 34.0795 265.413 33.3334 266.333 33.3334C267.254 33.3334 268 34.0795 268 35Z" stroke="#EC221F" stroke-width="3.5" stroke-linecap="round" stroke-linejoin="round"/>
</g>
<defs>
<clipPath id="clip0_1_588">
<rect width="40" height="40" fill="white" transform="translate(233)"/>
</clipPath>
</defs>
</svg>
